<?xml version="1.0" standalone="no"?>
<!DOCTYPE svg PUBLIC "-//W3C//DTD SVG 20010904//EN"
 "http://www.w3.org/TR/2001/REC-SVG-20010904/DTD/svg10.dtd">
<svg version="1.0" xmlns="http://www.w3.org/2000/svg"
 width="128.000000pt" height="128.000000pt" viewBox="0 0 128.000000 128.000000"
 preserveAspectRatio="xMidYMid meet">

<g transform="translate(0.000000,128.000000) scale(0.100000,-0.100000)"
fill="#000000" stroke="none">
<path d="M666 873 l-18 -38 27 -20 c16 -11 67 -52 115 -91 138 -111 182 -120
188 -36 3 41 3 42 -26 36 -25 -5 -39 3 -102 58 -98 85 -151 128 -160 128 -3 0
-14 -17 -24 -37z"/>
<path d="M535 666 c-11 -7 -56 -23 -100 -35 -64 -18 -87 -20 -109 -11 -24 9
-27 8 -22 -6 3 -8 6 -28 6 -42 0 -21 3 -23 10 -12 14 22 74 15 166 -18 164
-61 356 -88 433 -61 17 6 31 12 31 14 0 1 7 20 16 41 l16 39 -21 -19 c-44 -40
-169 -8 -331 86 -74 44 -69 42 -95 24z"/>
<path d="M497 388 c-11 -29 17 -62 63 -76 87 -26 219 4 300 68 l25 20 -35 -8
c-46 -9 -154 -9 -261 2 -72 7 -87 6 -92 -6z"/>
</g>
</svg>
